Ilo-Regular.ufo
<glyph name="H" format="2">
  <advance width="512.0"/>
  <unicode hex="0048"/>
  <outline>
    <contour>
      <point x="439" y="0" type="line"/>
      <point x="438" y="700" type="line"/>
      <point x="337" y="700" type="line"/>
      <point x="338" y="0" type="line"/>
    </contour>
  </outline>
</glyph>
<glyph name="R" format="2">
  <advance width="600"/>
  <unicode hex="0052"/>
  <outline>
    <contour>
      <point x="188" y="343" type="line"/>
      <point x="321" y="343" type="line" smooth="yes"/>
      <point x="376.0" y="343.0"/>
      <point x="427.0" y="379.0"/>
      <point x="427" y="450" type="qcurve" smooth="yes"/>
      <point x="427" y="492" type="line" smooth="yes"/>
      <point x="427.0" y="558.0"/>
      <point x="376.0" y="620.0"/>
      <point x="321" y="620" type="qcurve" smooth="yes"/>
      <point x="188" y="620" type="line"/>
    </contour>
    <contour>
      <point x="188" y="0" type="line"/>
      <point x="97" y="0" type="line"/>
      <point x="97" y="700" type="line"/>
      <point x="328" y="700" type="line" smooth="yes"/>
      <point x="422.0" y="700.0"/>
      <point x="516.0" y="595.0"/>
      <point x="516" y="491" type="qcurve" smooth="yes"/>
      <point x="516" y="450" type="line" smooth="yes"/>
      <point x="516.0" y="357.0"/>
      <point x="446" y="282"/>
      <point x="376" y="269" type="qcurve"/>
      <point x="526" y="0" type="line"/>
      <point x="425" y="0" type="line"/>
      <point x="278" y="265" type="line"/>
      <point x="188" y="265" type="line"/>
    </contour>
  </outline>
</glyph>
<glyph name="a" format="2">
  <advance width="400.0"/>
  <unicode hex="0061"/>
  <outline>
    <contour>
      <point x="305.0199362885233" y="130" type="line"/>
      <point x="305.25712653510533" y="512.1997299194336" type="line"/>
      <point x="117.0199362885233" y="512" type="line"/>
      <point x="45.0199362885233" y="432" type="line"/>
      <point x="73.0199362885233" y="407" type="line"/>
      <point x="106.81511756293736" y="442" type="line"/>
      <point x="205.0199362885233" y="442" type="line"/>
      <point x="205.0199362885233" y="80" type="line"/>
      <point x="260.0199362885233" y="0" type="line"/>
      <point x="296.7736975800272" y="0.38544464111328125" type="line"/>
      <point x="384.01993628852324" y="80" type="line"/>
      <point x="361.752785409617" y="101.26715087890625" type="line"/>
      <point x="340.5800406586405" y="82.5491943359375" type="line"/>
      <point x="316.4022147309061" y="81.61772155761719" type="line"/>
    </contour>
    <contour>
      <point x="229.0199362885233" y="89.0" type="curve"/>
      <point x="227.0199362885233" y="136.0" type="line"/>
      <point x="177.14086525136213" y="84.9846502739872"/>
      <point x="189.0234485299638" y="59.81843568382888"/>
      <point x="162.0199362885233" y="59.0" type="curve" smooth="yes"/>
      <point x="134.49922253541015" y="58.16588871926726"/>
      <point x="145.14316087486492" y="117.87254224351776"/>
      <point x="145.0199362885233" y="163.0" type="curve" smooth="yes"/>
      <point x="144.82062758628024" y="235.9910751420337"/>
      <point x="156.0199362885233" y="233.0"/>
      <point x="232.0199362885233" y="265.0" type="curve"/>
      <point x="232.0199362885233" y="306.0" type="line"/>
      <point x="179.0199362885233" y="287.0"/>
      <point x="40.84020920528056" y="294.20626497959404"/>
      <point x="43.0199362885233" y="172.0" type="curve" smooth="yes"/>
      <point x="44.82274108996799" y="70.92585958779574"/>
      <point x="41.0052660441596" y="-9.533029227850275"/>
      <point x="115.79462552620004" y="-10.609946278168692" type="curve" smooth="yes"/>
      <point x="154.97356047066023" y="-11.174096891935353"/>
      <point x="177.91413557665993" y="33.65331522747629"/>
    </contour>
  </outline>
</glyph>
<glyph name="c" format="2">
  <advance width="400.0"/>
  <unicode hex="0063"/>
  <outline>
    <contour>
      <point x="332" y="512" type="line"/>
      <point x="185" y="512" type="line"/>
      <point x="155" y="482" type="line" smooth="yes"/>
      <point x="111.866486347563" y="438.866486347563"/>
      <point x="50.0" y="346.0"/>
      <point x="50.0" y="214.0" type="curve" smooth="yes"/>
      <point x="50.0" y="113.79600672193158"/>
      <point x="105.56459779389755" y="-12.206077651110897"/>
      <point x="221" y="-12" type="curve" smooth="yes"/>
      <point x="275.02800847243947" y="-11.903548089516597"/>
      <point x="313.0" y="38.0"/>
      <point x="364" y="96" type="curve"/>
      <point x="341" y="120" type="line"/>
      <point x="298.0" y="84.0"/>
      <point x="281.01315703850435" y="65.84088930205462"/>
      <point x="236" y="66" type="curve" smooth="yes"/>
      <point x="202.704079909465" y="66.11769307982077"/>
      <point x="139.438758644379" y="148.49811848464313"/>
      <point x="141.0" y="276.0" type="curve" smooth="yes"/>
      <point x="141.71293942179537" y="334.2236163282565"/>
      <point x="142.0" y="409.0"/>
      <point x="167.5687026977539" y="442" type="curve"/>
      <point x="292" y="442" type="line"/>
      <point x="332" y="482" type="line"/>
    </contour>
  </outline>
</glyph>
<glyph name="d" format="2">
  <advance width="400.0"/>
  <unicode hex="0064"/>
  <outline>
    <contour>
      <point x="252.69982700000003" y="92" type="line"/>
      <point x="252.69982700000003" y="649" type="line"/>
      <point x="302.699827" y="699" type="line"/>
      <point x="352.699827" y="699" type="line"/>
      <point x="352.699827" y="40" type="line"/>
      <point x="303.699827" y="-1.0" type="line"/>
      <point x="179.69982700000003" y="2.0" type="line"/>
      <point x="160.69982700000003" y="68.0" type="line"/>
      <point x="231.69982700000003" y="67.0" type="line"/>
    </contour>
    <contour>
      <point x="292.699827" y="449" type="line"/>
      <point x="292.699827" y="404" type="line"/>
      <point x="246.69982700000003" y="435.0" type="line" smooth="yes"/>
      <point x="210.17789004840486" y="459.61260968477063"/>
      <point x="228.69982700000003" y="472.0"/>
      <point x="197.69982700000003" y="472.0" type="curve" smooth="yes"/>
      <point x="182.78174446721528" y="472.0"/>
      <point x="140.69982700000003" y="378.0"/>
      <point x="142.69982700000003" y="260" type="curve" smooth="yes"/>
      <point x="143.80870811783836" y="194.57601404762278"/>
      <point x="129.69982700000003" y="123.0"/>
      <point x="201.69982700000003" y="42.0" type="curve"/>
      <point x="181.69982700000003" y="2.0" type="line"/>
      <point x="123.69982700000003" y="54.0"/>
      <point x="41.4679515287296" y="162.99855639922794"/>
      <point x="40.69982700000003" y="305" type="curve" smooth="yes"/>
      <point x="40.0" y="434.37543400000004"/>
      <point x="105.78064380444579" y="522.2475831829734"/>
      <point x="160.69982700000003" y="522.0" type="curve" smooth="yes"/>
      <point x="181.16880254116808" y="521.9077230610177"/>
      <point x="210.91667795802448" y="514.4523192128597"/>
      <point x="224.69982700000003" y="508.0" type="curve" smooth="yes"/>
    </contour>
  </outline>
</glyph>
<glyph name="e" format="2">
  <advance width="512.0"/>
  <unicode hex="0065"/>
  <outline>
    <contour>
      <point x="273" y="502" type="line"/>
      <point x="203" y="410"/>
      <point x="150.3033542084941" y="326.00333810692143"/>
      <point x="150" y="200" type="curve" smooth="yes"/>
      <point x="149.7857278106873" y="110.99839606360104"/>
      <point x="216.0" y="64.0"/>
      <point x="281" y="64" type="curve" smooth="yes"/>
      <point x="332.99999999999864" y="64.0"/>
      <point x="369" y="80"/>
      <point x="406" y="114" type="curve"/>
      <point x="431" y="84" type="line"/>
      <point x="368" y="17"/>
      <point x="317.9721036741089" y="-8.265875435222096"/>
      <point x="244" y="-11" type="curve" smooth="yes"/>
      <point x="146.04648107382317" y="-14.620515153690837"/>
      <point x="31.339942049152235" y="-2.917797867784998"/>
      <point x="26.0" y="200.0" type="curve" smooth="yes"/>
      <point x="23.0" y="314.0"/>
      <point x="132" y="421"/>
      <point x="242" y="525" type="curve"/>
    </contour>
    <contour>
      <point x="271.0" y="502.0" type="line"/>
      <point x="312.0" y="466.0"/>
      <point x="396.0" y="398.5489443757498"/>
      <point x="396" y="350" type="curve" smooth="yes"/>
      <point x="396" y="279"/>
      <point x="299.0" y="232.0"/>
      <point x="139.0" y="187.0" type="curve"/>
      <point x="119.0" y="229.0" type="line"/>
      <point x="257.0" y="286.0"/>
      <point x="313" y="298"/>
      <point x="311" y="347" type="curve" smooth="yes"/>
      <point x="309" y="396"/>
      <point x="272.0" y="436.0"/>
      <point x="232.0" y="465.0" type="curve"/>
    </contour>
  </outline>
</glyph>
<glyph name="f" format="2">
  <advance width="512.0"/>
  <unicode hex="0066"/>
  <outline>
    <contour>
      <point x="211.0" y="-210.84860541916998" type="line"/>
      <point x="211.0" y="607.6967966780364" type="line"/>
      <point x="301" y="701" type="line"/>
      <point x="301.0" y="-123.47077215878198" type="line"/>
    </contour>
    <contour>
      <point x="163" y="550" type="line"/>
      <point x="103" y="490" type="line"/>
      <point x="418" y="450" type="line"/>
      <point x="478" y="510" type="line"/>
    </contour>
    <contour>
      <point x="163" y="550" type="line"/>
      <point x="103" y="490" type="line"/>
      <point x="418" y="450" type="line"/>
      <point x="478" y="510" type="line"/>
    </contour>
    <contour>
      <point x="301" y="701" type="line"/>
      <point x="492" y="661" type="line"/>
      <point x="412" y="591" type="line"/>
      <point x="234" y="631" type="line"/>
    </contour>
  </outline>
</glyph>
<glyph name="g" format="2">
  <advance width="400.0"/>
  <unicode hex="0067"/>
  <outline>
    <contour>
      <point x="343.0199362885233" y="0.0" type="line"/>
      <point x="343.25712653510533" y="512.1997299194336" type="line"/>
      <point x="175.0199362885233" y="512.0" type="line"/>
      <point x="103.0199362885233" y="432.0" type="line"/>
      <point x="131.0199362885233" y="407.0" type="line"/>
      <point x="164.81511756293736" y="442.0" type="line"/>
      <point x="243.0199362885233" y="442.0" type="line"/>
      <point x="243.0199362885233" y="0.0" type="line"/>
    </contour>
    <contour>
      <point x="92.0" y="423.0" type="curve"/>
      <point x="116.0" y="394.0" type="line"/>
      <point x="84.0" y="366.0"/>
      <point x="121.0" y="332.0"/>
      <point x="121.0" y="268.0" type="curve" smooth="yes"/>
      <point x="121.0" y="231.11972101218296"/>
      <point x="140.0" y="70.0"/>
      <point x="183.0" y="72.0" type="curve" smooth="yes"/>
      <point x="231.60954936285037" y="74.26090927269054"/>
      <point x="208.0" y="114.0"/>
      <point x="217.0" y="122.0" type="curve"/>
      <point x="254.0" y="178.0" type="line"/>
      <point x="267.0" y="147.0" type="line"/>
      <point x="252.0" y="115.0"/>
      <point x="236.0" y="66.0"/>
      <point x="223.0" y="55.0" type="curve" smooth="yes"/>
      <point x="210.0" y="44.0"/>
      <point x="204.04541599566227" y="-14.867590608884205"/>
      <point x="141.0" y="-17.0" type="curve" smooth="yes"/>
      <point x="94.98285704096395" y="-18.556455552690963"/>
      <point x="34.0" y="139.61755147746965"/>
      <point x="34.0" y="247.0" type="curve" smooth="yes"/>
      <point x="34.0" y="318.0"/>
      <point x="32.0" y="382.0"/>
    </contour>
    <contour>
      <point x="245" y="-9" type="line"/>
      <point x="348" y="-9" type="line"/>
      <point x="345" y="-30"/>
      <point x="372" y="-45"/>
      <point x="359" y="-70" type="curve" smooth="yes"/>
      <point x="346" y="-95"/>
      <point x="276" y="-184"/>
      <point x="171" y="-187" type="curve" smooth="yes"/>
      <point x="66" y="-190"/>
      <point x="30.227596898239785" y="-119.0137467742952"/>
      <point x="39" y="-81" type="curve" smooth="yes"/>
      <point x="48" y="-42"/>
      <point x="65" y="-55"/>
      <point x="76" y="-56" type="curve" smooth="yes"/>
      <point x="87" y="-57"/>
      <point x="110" y="-59"/>
      <point x="106" y="-74" type="curve" smooth="yes"/>
      <point x="102" y="-89"/>
      <point x="85" y="-91"/>
      <point x="75" y="-94" type="curve" smooth="yes"/>
      <point x="65" y="-97"/>
      <point x="136" y="-138"/>
      <point x="178" y="-133" type="curve" smooth="yes"/>
      <point x="220" y="-128"/>
      <point x="264" y="-91"/>
      <point x="264" y="-61" type="curve"/>
    </contour>
  </outline>
</glyph>
<glyph name="i" format="2">
  <advance width="512.0"/>
  <unicode hex="0069"/>
  <outline>
    <contour>
      <point x="415.0" y="-3.0" type="line"/>
      <point x="66.82508250825083" y="0.04950495049504955" type="line"/>
      <point x="146.82508250825083" y="74.70627062706271" type="line"/>
      <point x="248.0" y="75.00466598383976" type="line"/>
      <point x="248.0" y="451.2613590126136" type="line"/>
      <point x="69.0" y="450.8481848184818" type="line"/>
      <point x="130" y="513" type="line"/>
      <point x="338" y="513" type="line"/>
      <point x="338.0" y="75.22537587092035" type="line"/>
      <point x="495.0" y="74.57908098502158" type="line"/>
    </contour>
    <contour>
      <point x="366.4091629284897" y="625.4091629284898" type="line"/>
      <point x="256.10678051691224" y="691.9611375097242" type="line"/>
      <point x="185.69761758842253" y="619.5519745812345" type="line"/>
      <point x="296.0" y="553.0" type="line"/>
    </contour>
  </outline>
</glyph>
<glyph name="j" format="2">
  <advance width="400.0"/>
  <unicode hex="006A"/>
  <outline>
    <contour>
      <point x="294.9833984375" y="21.90966033935547" type="curve" smooth="yes"/>
      <point x="294.23719024658203" y="512.1997299194336" type="line"/>
      <point x="146" y="512" type="line"/>
      <point x="106" y="472" type="line"/>
      <point x="106" y="442" type="line"/>
      <point x="194" y="442" type="line"/>
      <point x="194.97979736328125" y="20.1077880859375" type="line" smooth="yes"/>
      <point x="195.2610498221116" y="-100.997071353215"/>
      <point x="170.99744415283203" y="-147.0"/>
      <point x="63.99744415283203" y="-234.0" type="curve"/>
      <point x="86.99744415283203" y="-252" type="line"/>
      <point x="199.81085553060853" y="-190.77742954916215"/>
      <point x="295.1622466030811" y="-95.60108347227003"/>
    </contour>
    <contour>
      <point x="294" y="654" type="line"/>
      <point x="248" y="700" type="line"/>
      <point x="218" y="700" type="line"/>
      <point x="172" y="654" type="line"/>
      <point x="172" y="624" type="line"/>
      <point x="218" y="578" type="line"/>
      <point x="248" y="578" type="line"/>
      <point x="294" y="624" type="line"/>
    </contour>
  </outline>
</glyph>
<glyph name="k" format="2">
  <advance width="400.0"/>
  <unicode hex="006B"/>
  <outline>
    <contour>
      <point x="158.0" y="0.0" type="line"/>
      <point x="58.0" y="0.0" type="line"/>
      <point x="58.0" y="650.0" type="line"/>
      <point x="108.0" y="700.0" type="line"/>
      <point x="158.0" y="700.0" type="line"/>
    </contour>
    <contour>
      <point x="122" y="248" type="line"/>
      <point x="122" y="308" type="line"/>
      <point x="256.0" y="432.0" type="line"/>
      <point x="256.0" y="470.0" type="line"/>
      <point x="298.0" y="512.0" type="line"/>
      <point x="338.0" y="512.0" type="line"/>
      <point x="338.0" y="430.0" type="line"/>
    </contour>
    <contour>
      <point x="186.0" y="326.0" type="line"/>
      <point x="263" y="384" type="line"/>
      <point x="372.0" y="0.0" type="line"/>
      <point x="277.0" y="0.0" type="line"/>
    </contour>
  </outline>
</glyph>
<glyph name="l" format="2">
  <advance width="512.0"/>
  <unicode hex="006C"/>
  <outline>
    <contour>
      <point x="71" y="-1" type="line"/>
      <point x="91.0" y="53.36843393148451" type="line"/>
      <point x="211.0" y="53.15139458083001" type="line"/>
      <point x="211.0" y="647.6967966780364" type="line"/>
      <point x="131.0" y="646.5791190864601" type="line"/>
      <point x="151" y="701" type="line"/>
      <point x="301" y="701" type="line"/>
      <point x="301.0" y="50.52922784121802" type="line"/>
      <point x="461.0" y="50.31615008156607" type="line"/>
      <point x="441" y="-1" type="line"/>
    </contour>
  </outline>
</glyph>
<glyph name="m" format="2">
  <advance width="600"/>
  <unicode hex="006D"/>
  <outline>
    <contour>
      <point x="137" y="507" type="line"/>
      <point x="97" y="417" type="line"/>
      <point x="575" y="417" type="line"/>
      <point x="615" y="507" type="line"/>
    </contour>
    <contour>
      <point x="475" y="440" type="line"/>
      <point x="525" y="395"/>
      <point x="611" y="378"/>
      <point x="617" y="312" type="curve" smooth="yes"/>
      <point x="623" y="246"/>
      <point x="408" y="210"/>
      <point x="320" y="210" type="curve"/>
      <point x="13" y="248" type="line"/>
      <point x="62" y="328" type="line"/>
      <point x="173.0" y="325.0"/>
      <point x="283" y="319"/>
      <point x="377" y="321" type="curve" smooth="yes"/>
      <point x="471" y="323"/>
      <point x="547" y="332"/>
      <point x="529" y="357" type="curve"/>
      <point x="413" y="437" type="line"/>
    </contour>
    <contour>
      <point x="473.0" y="241.0" type="line"/>
      <point x="523.0" y="196.0"/>
      <point x="609.0" y="179.0"/>
      <point x="615.0" y="113.0" type="curve" smooth="yes"/>
      <point x="621.0" y="47.0"/>
      <point x="406.0" y="11.0"/>
      <point x="318.0" y="11.0" type="curve"/>
      <point x="11.0" y="49.0" type="line"/>
      <point x="60.0" y="129.0" type="line"/>
      <point x="171.0" y="126.0"/>
      <point x="281.0" y="120.0"/>
      <point x="375.0" y="122.0" type="curve" smooth="yes"/>
      <point x="469.0" y="124.0"/>
      <point x="545.0" y="133.0"/>
      <point x="527.0" y="158.0" type="curve"/>
      <point x="411.0" y="238.0" type="line"/>
    </contour>
  </outline>
</glyph>
<glyph name="n" format="2">
  <advance width="512.0"/>
  <unicode hex="006E"/>
  <outline>
    <contour>
      <point x="162.0" y="400.0" type="line"/>
      <point x="201.0" y="426.0"/>
      <point x="246" y="518"/>
      <point x="301" y="518" type="curve" smooth="yes"/>
      <point x="364" y="518"/>
      <point x="408.3443172615848" y="488.9653717368512"/>
      <point x="411" y="400" type="curve" smooth="yes"/>
      <point x="417" y="199" type="line" smooth="yes"/>
      <point x="419.5103646635546" y="114.90278377096922"/>
      <point x="421.0" y="75.0"/>
      <point x="465.0" y="80.0" type="curve"/>
      <point x="479.0" y="53.0" type="line"/>
      <point x="438" y="-3" type="line"/>
      <point x="395" y="-22"/>
      <point x="327.3925345047589" y="-10.255410939710998"/>
      <point x="326.0" y="82.0" type="curve" smooth="yes"/>
      <point x="322.0" y="347.0" type="line" smooth="yes"/>
      <point x="320.5836645742878" y="440.832221952871"/>
      <point x="313.0" y="472.0"/>
      <point x="301" y="472" type="curve" smooth="yes"/>
      <point x="274.999999999999" y="472.0"/>
      <point x="223.0" y="398.0"/>
      <point x="162" y="343" type="curve"/>
    </contour>
    <contour>
      <point x="91.0" y="1.151394580830008" type="line"/>
      <point x="91.0" y="457.69679667803643" type="line"/>
      <point x="181" y="511" type="line"/>
      <point x="181.0" y="0.5292278412180167" type="line"/>
    </contour>
  </outline>
</glyph>
<glyph name="o" format="2">
  <advance width="400.0"/>
  <unicode hex="006F"/>
  <outline>
    <contour>
      <point x="28.0" y="206.0" type="curve" smooth="yes"/>
      <point x="28.0" y="71.98077100843324"/>
      <point x="50.00981062534845" y="-9.320888704336085"/>
      <point x="168.0" y="-12.0" type="curve" smooth="yes"/>
      <point x="290.37205700915706" y="-14.778606949818808"/>
      <point x="369.0" y="153.22445172314792"/>
      <point x="368.9999999999999" y="308.0" type="curve" smooth="yes"/>
      <point x="369.0" y="442.01922899156676"/>
      <point x="337.0235557596845" y="520.7558286831969"/>
      <point x="219.0" y="522.0" type="curve" smooth="yes"/>
      <point x="69.90569035739895" y="523.5717105145801"/>
      <point x="28.0" y="342.47058823529414"/>
    </contour>
    <contour>
      <point x="136.0" y="266.0" type="curve" smooth="yes"/>
      <point x="136.0" y="394.9448714770932"/>
      <point x="126.0059788966468" y="448.66687554357554"/>
      <point x="191.0" y="450.0" type="curve" smooth="yes"/>
      <point x="251.01552736204405" y="451.2310081132608"/>
      <point x="261.0" y="319.0"/>
      <point x="261.0" y="248.0" type="curve" smooth="yes"/>
      <point x="261.0" y="142.5153418629493"/>
      <point x="275.9658435134292" y="60.0"/>
      <point x="196.0" y="60.00000000000001" type="curve" smooth="yes"/>
      <point x="136.0" y="60.0"/>
      <point x="136.0" y="195.0"/>
    </contour>
  </outline>
</glyph>
<glyph name="p" format="2">
  <advance width="512.0279028746854"/>
  <unicode hex="0070"/>
  <outline>
    <contour>
      <point x="213" y="364" type="curve"/>
      <point x="238" y="330" type="line"/>
      <point x="260" y="360"/>
      <point x="356" y="446"/>
      <point x="397" y="445" type="curve" smooth="yes"/>
      <point x="438" y="444"/>
      <point x="480.9767148398418" y="400.99621434045196"/>
      <point x="480" y="275" type="curve" smooth="yes"/>
      <point x="479.0" y="146.0"/>
      <point x="454.0417024858279" y="58.72030867890514"/>
      <point x="407" y="59" type="curve" smooth="yes"/>
      <point x="325.04977649571435" y="59.487243553373034"/>
      <point x="272.0" y="123.0"/>
      <point x="224" y="181" type="curve"/>
      <point x="224.0" y="118.0" type="line"/>
      <point x="284.0" y="19.0"/>
      <point x="349.03151862725326" y="-16.67078351928017"/>
      <point x="420" y="-13" type="curve" smooth="yes"/>
      <point x="478" y="-10"/>
      <point x="584" y="15"/>
      <point x="582" y="297" type="curve" smooth="yes"/>
      <point x="580.9219196142562" y="449.0093343932695"/>
      <point x="508.02246907382926" y="512.0"/>
      <point x="419" y="512" type="curve" smooth="yes"/>
      <point x="350" y="512"/>
      <point x="301.0" y="468.0"/>
    </contour>
    <contour>
      <point x="250.0" y="-200.0" type="line"/>
      <point x="250.0" y="512.0" type="line"/>
      <point x="218.0" y="512.0" type="line"/>
      <point x="148.0" y="462.0" type="line"/>
      <point x="149.0" y="-249.0" type="line"/>
      <point x="181.0" y="-249.0" type="line"/>
    </contour>
  </outline>
</glyph>
<glyph name="r" format="2">
  <advance width="512.0101023983347"/>
  <unicode hex="0072"/>
  <outline>
    <contour>
      <point x="190.0" y="130.0" type="line"/>
      <point x="234.38227553396092" y="85.61772446603908" type="line"/>
      <point x="258.5601068211987" y="86.54919441193397" type="line"/>
      <point x="309.73285179240236" y="126.26714820759764" type="line"/>
      <point x="340.0" y="95.0" type="line"/>
      <point x="209.753758045162" y="-11.614552198101904" type="line"/>
      <point x="175.0" y="-12.0" type="line"/>
      <point x="90.0" y="80.0" type="line"/>
      <point x="90.0" y="462.0" type="line"/>
      <point x="140.0" y="512.0" type="line"/>
      <point x="190.0" y="512.0" type="line"/>
    </contour>
    <contour>
      <point x="135" y="441" type="line"/>
      <point x="205" y="441" type="line"/>
      <point x="239" y="477" type="line" smooth="yes"/>
      <point x="251.98449765181888" y="490.7482916313381"/>
      <point x="298.38474118853105" y="522.7308607307098"/>
      <point x="347.4832194409121" y="522.8342508997478" type="curve" smooth="yes"/>
      <point x="384.52807156944493" y="522.91225888818"/>
      <point x="439.86863943088645" y="490.00165853235416"/>
      <point x="439" y="416" type="curve" smooth="yes"/>
      <point x="438.10655318253623" y="339.8849355079797"/>
      <point x="398.0" y="313.0"/>
      <point x="305" y="217" type="curve"/>
      <point x="277" y="247" type="line"/>
      <point x="344.0" y="319.0"/>
      <point x="350.0" y="360.0"/>
      <point x="350" y="396" type="curve" smooth="yes"/>
      <point x="350.0" y="425.086732"/>
      <point x="326.58158388965523" y="444.3097788086332"/>
      <point x="302.79618319658675" y="444.46983552144064" type="curve" smooth="yes"/>
      <point x="281.73098165245585" y="444.6115874707686"/>
      <point x="260.4214320724211" y="432.54299076859655"/>
      <point x="245.0" y="416.0" type="curve" smooth="yes"/>
      <point x="190" y="357" type="line"/>
      <point x="135.0" y="357.0" type="line"/>
    </contour>
  </outline>
</glyph>
<glyph name="u" format="2">
  <advance width="512.0"/>
  <unicode hex="0075"/>
  <outline>
    <contour>
      <point x="366.0" y="67.0" type="line"/>
      <point x="309.0" y="68.0" type="line"/>
      <point x="285.0" y="35.0"/>
      <point x="257.0392006206971" y="-11.0"/>
      <point x="181.0" y="-11.0" type="curve" smooth="yes"/>
      <point x="136.0" y="-11.0"/>
      <point x="80.0" y="28.489438190873443"/>
      <point x="80.0" y="93.0" type="curve" smooth="yes"/>
      <point x="80.0" y="461.0" type="line"/>
      <point x="130.0" y="511.0" type="line"/>
      <point x="170.0" y="511.0" type="line"/>
      <point x="169.0" y="101.0" type="line" smooth="yes"/>
      <point x="168.91700436059023" y="66.97178784325962"/>
      <point x="194.74300078382595" y="50.0"/>
      <point x="219.0" y="50.0" type="curve" smooth="yes"/>
      <point x="258.0" y="50.0"/>
      <point x="316.0" y="116.0"/>
      <point x="320.0" y="144.0" type="curve"/>
      <point x="366.0" y="132.0" type="line"/>
    </contour>
    <contour>
      <point x="320.0" y="461.0" type="line"/>
      <point x="370.0" y="511.0" type="line"/>
      <point x="410.0" y="511.0" type="line"/>
      <point x="410.0" y="49.0" type="line"/>
      <point x="360.0" y="-1.0" type="line"/>
      <point x="320.0" y="-1.0" type="line"/>
    </contour>
  </outline>
</glyph>
<glyph name="y" format="2">
  <advance width="512"/>
  <unicode hex="0079"/>
  <outline>
    <contour>
      <point x="38" y="513" type="line"/>
      <point x="218" y="86" type="line"/>
      <point x="338" y="86" type="line"/>
      <point x="158" y="513" type="line"/>
    </contour>
    <contour>
      <point x="371" y="502" type="line"/>
      <point x="201" y="-220" type="line"/>
      <point x="311" y="-220" type="line"/>
      <point x="481" y="502" type="line"/>
    </contour>
  </outline>
</glyph>
<glyph name="z" format="2">
  <advance width="512"/>
  <unicode hex="007A"/>
  <outline>
    <contour>
      <point x="279" y="441" type="move"/>
      <point x="105" y="250" type="line"/>
      <point x="127" y="227" type="line"/>
      <point x="194" y="257"/>
      <point x="244.56869002753885" y="257.66824693504094"/>
      <point x="286" y="257" type="curve" smooth="yes"/>
      <point x="348" y="256"/>
      <point x="372.68404568095616" y="180.0179969795413"/>
      <point x="373" y="155" type="curve" smooth="yes"/>
      <point x="374.2550218612465" y="55.62445346886133"/>
      <point x="257.0" y="-52.0"/>
      <point x="110" y="-127" type="curve"/>
      <point x="125" y="-164" type="line"/>
      <point x="275.0" y="-83.0"/>
      <point x="488" y="25"/>
      <point x="488" y="191" type="curve" smooth="yes"/>
      <point x="488.0" y="249.257375"/>
      <point x="395.04187369655074" y="325.7633498957245"/>
      <point x="323.0" y="320.0" type="curve" smooth="yes"/>
      <point x="298.0" y="318.0"/>
      <point x="261.0" y="326.0"/>
      <point x="188" y="285" type="curve"/>
      <point x="380" y="485" type="line"/>
      <point x="361.25712653510533" y="512.1997299194336" type="line"/>
      <point x="125.0199362885233" y="512" type="line"/>
      <point x="53.0199362885233" y="432" type="line"/>
      <point x="81.0199362885233" y="407" type="line"/>
      <point x="114.81511756293736" y="442" type="line"/>
      <point x="280.0199362885233" y="442" type="line"/>
    </contour>
  </outline>
</glyph>
<glyph name="egrave" format="2">
  <advance width="512.0"/>
  <unicode hex="00E8"/>
  <outline>
    <contour>
      <point x="434.0000000000001" y="424.6330266973597"/>
      <point x="401.27045783679534" y="521.9561547969945"/>
      <point x="345.00000000000006" y="522.0" type="curve" smooth="yes"/>
      <point x="215.72106773960627" y="522.1007324490888"/>
      <point x="75.0" y="399.57784599999536"/>
      <point x="75.00000000000006" y="170.0" type="curve" smooth="yes"/>
      <point x="75.0" y="48.0"/>
      <point x="165.98203725744042" y="-9.692083661828516"/>
      <point x="254.00000000000006" y="-10" type="curve" smooth="yes"/>
      <point x="357.97405915582556" y="-10.36373611206745"/>
      <point x="417.0" y="58"/>
      <point x="450.0" y="95" type="curve"/>
      <point x="432.0" y="116" type="line"/>
      <point x="392.00000000000006" y="80"/>
      <point x="361.9999999999987" y="67.0"/>
      <point x="320.00000000000006" y="67" type="curve" smooth="yes"/>
      <point x="241.64184297708664" y="67.0"/>
      <point x="200.995249262402" y="112.99999953367711"/>
      <point x="200.9845352172852" y="246.34913635253906" type="curve" smooth="yes"/>
      <point x="200.97407342654446" y="376.55866503196984"/>
      <point x="249.00000000000006" y="460.0"/>
      <point x="309.31042480468756" y="484.4765090942383" type="curve"/>
      <point x="268.00000000000006" y="484.0" type="line"/>
      <point x="315.00000000000006" y="444.0"/>
      <point x="322.61912635436335" y="363.79984247856476"/>
      <point x="323.0" y="327.0" type="curve" smooth="yes"/>
      <point x="323.53992075473076" y="274.8330964803352"/>
      <point x="284.19446369078986" y="237.88112965761673"/>
      <point x="185.5551253991252" y="204.1933568413894" type="curve"/>
      <point x="185.67271865114708" y="161.76584022413354" type="line"/>
      <point x="357.0" y="234.0"/>
      <point x="434.0000000000001" y="279.48721820595443"/>
      <point x="434.0" y="338.0" type="curve" smooth="yes"/>
    </contour>
  </outline>
</glyph>
